<svg xmlns="http://www.w3.org/2000/svg" version="1.1" xmlns:xlink="http://www.w3.org/1999/xlink" xmlns:svgjs="http://svgjs.dev/svgjs" viewBox="0 0 9.863624929024699 9.903856723344214"><g transform="matrix(0.8571428571428571,0,0,0.8571428571428571,3.6863895938797713,3.12935314586103)"><rect width="11.547794211514997" height="11.547794211514997" x="-4.320903756686157" y="-3.6475593539779085" fill="#fffcf7"></rect><g><path d=" M -0.7469652070454824 -0.8839115415106951 Q -0.783343918876489 -0.937777944077755 -0.7850561507192824 -0.9921292850190467 Q -0.7867683825620758 -1.0464806259603383 -0.7608366127468268 -1.0929542024769885 Q -0.7349048429315777 -1.1394277789936387 -0.6876681514496943 -1.171329110906983 Q -0.6462324571673403 -1.1993127353923727 -0.607745423391404 -1.2102213664306807 Q -0.5692583896154676 -1.2211299974689884 -0.5323640145173376 -1.22010282361881 Q -0.49546963941920774 -1.219075649768632 -0.4629770802963379 -1.2120589837763813 L -0.5648374734231567 -1.3628849109641494 Q -0.6181126487806912 -1.3667262246227754 -0.6701821203674933 -1.3544881639646802 Q -0.7222515919542952 -1.3422501033065848 -0.7860625611491202 -1.2991553215990845 Q -0.8556745275434747 -1.2521428324636297 -0.8999617286920145 -1.1908595246675522 Q -0.9442489298405543 -1.1295762168714747 -0.9590893860128733 -1.0604259394996702 Q -0.9739298421851921 -0.9912756621278659 -0.959635774172888 -0.9200810020776934 Q -0.9453417061605838 -0.8488863420275209 -0.8994485620045446 -0.7809318034044606 Q -0.8535554178485053 -0.7129772647814003 -0.7928533722399648 -0.6731242641548644 Q -0.7321513266314243 -0.6332712635283284 -0.6624629664677414 -0.6212075801067193 Q -0.5927746063040584 -0.6091438966851102 -0.5193844356907132 -0.6273340824275396 Q -0.44599426507736806 -0.6455242681699691 -0.3763822986830136 -0.692536757305424 Q -0.3125713294881886 -0.7356315390129242 -0.2817694125102829 -0.7793607273256085 Q -0.2509674955323771 -0.8230899156382927 -0.23463070449555712 -0.8739437184323737 L -0.336491097622376 -1.0247696456201418 Q -0.34211937723927166 -0.9920080451013327 -0.35522767152482027 -0.9578148788115102 Q -0.36833596581036887 -0.9236217125216877 -0.3925513510987565 -0.8915808773993794 Q -0.4167667363871441 -0.8595400422770711 -0.45820243066949795 -0.8315564177916813 Q -0.5054391221513813 -0.799655085878337 -0.5582351714726046 -0.7929597758727466 Q -0.6110312207938279 -0.786264465867156 -0.6610886942490056 -0.8085691593482192 Q -0.7111461677041834 -0.8308738528292821 -0.7469652070454824 -0.8839115415106951 M -0.11352155321379326 -1.2015997246840304 L 0.38056830045547385 -1.3905870695013016 L 0.32626569854200466 -1.532556176793794 L -0.1678241551272625 -1.3435688319765229 L -0.11352155321379326 -1.2015997246840304 M 0.1361611665621436 -1.7328591146672012 L 0.3862389385320677 -1.07905401529388 L 0.5440861696664838 -1.1394299345266188 L 0.29400839769655973 -1.79323503389994 L 0.1361611665621436 -1.7328591146672012 M -0.3028222573028007 -1.564949753487395 L -0.05274448533287662 -0.9111446541140737 L 0.10510274580153953 -0.9715205733468125 L -0.14497502616838456 -1.625325672720134 L -0.3028222573028007 -1.564949753487395 M 0.8476474414513042 -1.5163250175132417 L 1.0882773526668292 -1.2310264969625588 L 1.2842102250537764 -1.2595626059860459 L 1.021809994684146 -1.5416904477563413 L 0.8476474414513042 -1.5163250175132417 M 0.6202653730102722 -1.8702492960693728 L 0.7211506069316912 -1.1775573229842067 L 0.8883862404336813 -1.2019139008880921 L 0.7875010065122623 -1.8946058739732583 L 0.6202653730102722 -1.8702492960693728 M 0.7457681410071157 -1.7440191284186466 L 0.8813378557394983 -1.7637638099146957 Q 0.9149828944322064 -1.7686639498480219 0.940812452880381 -1.761309773458219 Q 0.9666420113285554 -1.753955597068416 0.9824607869649786 -1.7355432007723195 Q 0.9982795626014018 -1.7171308044762232 1.0024590937210036 -1.6884335655912663 Q 1.0066386248406052 -1.6597363267063094 0.9967288414767221 -1.6375767645788462 Q 0.9868190581128393 -1.6154172024513826 0.9640881175636797 -1.6014958396678556 Q 0.9413571770145202 -1.5875744768843285 0.9077121383218121 -1.5826743369510023 L 0.7721424235894296 -1.5629296554549532 L 0.7910223745090095 -1.433297300491872 L 0.9384668087799948 -1.4547714431408598 Q 1.0275272053195161 -1.4677424017878995 1.0827212718929289 -1.5050869464375494 Q 1.1379153384663414 -1.5424314910871995 1.1611694264930372 -1.597861603752128 Q 1.1844235145197328 -1.6532917164170566 1.1747673564158259 -1.7195922338409226 Q 1.1649670765491735 -1.7868823112263388 1.1268684469597547 -1.8333768746010846 Q 1.0887698173703357 -1.8798714379758303 1.02521668855772 -1.8999213710960943 Q 0.961663559745104 -1.919971304216358 0.8726031632055826 -1.9070003455693185 L 0.7251587289345973 -1.8855262029203306 L 0.7457681410071157 -1.7440191284186466 M 1.5635586219820385 -1.6026081114129915 Q 1.5685894349004432 -1.6644036688696566 1.5968628989538711 -1.709759056977571 Q 1.6251363630072988 -1.7551144450854852 1.671680463904372 -1.7784145882542102 Q 1.718224564801445 -1.8017147314229351 1.778026717178863 -1.7968462027922207 Q 1.8388255720959046 -1.7918965320176614 1.8804896459555231 -1.7614153091186329 Q 1.9221537198151415 -1.7309340862196043 1.9422203289334599 -1.681643304135196 Q 1.9622869380517782 -1.6323525220507877 1.9572561251333733 -1.5705569645941224 Q 1.9522253122149686 -1.5087614071374573 1.9239518481615407 -1.463406019029543 Q 1.895678384108113 -1.4180506309216288 1.8491342832110398 -1.3947504877529038 Q 1.802590182313967 -1.3714503445841788 1.7437847324761726 -1.3762377310710479 Q 1.6839825800987547 -1.3811062597017623 1.6418201549693243 -1.4116280536727133 Q 1.599657729839894 -1.4421498476436645 1.5790927694517638 -1.4914812007999954 Q 1.5585278090636336 -1.5408125539563264 1.5635586219820385 -1.6026081114129915 M 1.3851488673894083 -1.6171325551612892 Q 1.378576353737944 -1.5363996494517749 1.4004680077961176 -1.4663924678016238 Q 1.4223596618542913 -1.3963852861514727 1.468636032913023 -1.3424524809061067 Q 1.5149124039717545 -1.2885196756607404 1.5814534702500411 -1.2555115478957692 Q 1.6479945365283277 -1.2225034201307978 1.7307208473170892 -1.215768622191643 Q 1.812450455566227 -1.2091149663963336 1.8834543397560017 -1.230925478310662 Q 1.9544582239457764 -1.2527359902249904 2.0088488093890318 -1.2984734389419876 Q 2.063239394832287 -1.3442108876589847 2.096166380453413 -1.4097552513976477 Q 2.1290933660745393 -1.4752996151363105 2.1356658797260035 -1.5560325208458248 Q 2.142238393377468 -1.636765426555339 2.119767245905637 -1.7058164767377892 Q 2.0972960984338065 -1.7748675269202392 2.050440233961418 -1.8278442006979043 Q 2.003584369489029 -1.8808208744755694 1.9374605123367092 -1.9127917286289946 Q 1.871336655184389 -1.9447625827824195 1.790603749474875 -1.9513350964338838 Q 1.7108675463049843 -1.957826467941503 1.6399448042590548 -1.9370126585667982 Q 1.5690220622131255 -1.9161988491920932 1.5142142676439034 -1.8714986740866424 Q 1.4594064730746816 -1.8267984989811916 1.4255639270577771 -1.7623319799259975 Q 1.3917213810408726 -1.6978654608708035 1.3851488673894083 -1.6171325551612892 M 2.92926008809561 -1.6781310526059934 L 2.802047366744896 -1.3052330457374322 L 2.4834293975620056 -1.8672050999481113 L 2.24611632600674 -1.1715704932263027 L 2.3994398719780774 -1.1192647550059585 L 2.5266525933287913 -1.49216276187452 L 2.8462170041534804 -0.9298678327365545 L 3.083530075708746 -1.625502439458363 L 2.92926008809561 -1.6781310526059934 M 3.3300174113862187 -1.1022405582950472 Q 3.36380275926095 -1.1542266167048112 3.4102295730527072 -1.1807039836650188 Q 3.4566563868444646 -1.2071813506252265 3.508681935100146 -1.20557127960326 Q 3.560707483355827 -1.2039612085812936 3.61101657213947 -1.1712657106380053 Q 3.662164145736173 -1.1380252877289956 3.6843445034363644 -1.0914094992846115 Q 3.7065248611365558 -1.0447937108402277 3.700764560778243 -0.9918874830425287 Q 3.69500426041993 -0.9389812552448297 3.661218912545199 -0.8869951968350657 Q 3.6274335646704676 -0.8350091384253018 3.5810067508787102 -0.8085317714650941 Q 3.534579937086953 -0.7820544045048865 3.4825543888312716 -0.7836644755268528 Q 3.4305288405755903 -0.7852745465488191 3.3810582366050084 -0.817425119526386 Q 3.3307491478213658 -0.8501206174696744 3.308149547714644 -0.8970088683969191 Q 3.2855499476079224 -0.9438971193241636 3.290891005559705 -0.9970758096047234 Q 3.2962320635114875 -1.0502544998852832 3.3300174113862187 -1.1022405582950472 M 3.1799286298483516 -1.1997821271591906 Q 3.1357897076249124 -1.1318648573012733 3.121793142315022 -1.0598624534558045 Q 3.1077965770051312 -0.9878600496103358 3.1228938117786234 -0.9184170981883659 Q 3.137991046552116 -0.8489741467663962 3.180861062095964 -0.7883159917724452 Q 3.2237310776398127 -0.727657836778494 3.2933253171238515 -0.6824290646236119 Q 3.3620810717948295 -0.6377452174344511 3.434921960453359 -0.6232037271588391 Q 3.5077628491118884 -0.608662236883227 3.5773525804575277 -0.6230677667673281 Q 3.6469423118031674 -0.6374732966514292 3.707055541831397 -0.679504827382217 Q 3.7671687718596267 -0.7215363581130048 3.811307694083066 -0.7894536279709221 Q 3.855446616306505 -0.8573708978288397 3.868479014244144 -0.9288072793441083 Q 3.8815114121817826 -1.0002436608593772 3.8654500100360387 -1.069120589951147 Q 3.849388607890295 -1.1379975190429168 3.806392909787255 -1.1975447267409465 Q 3.7633972116842154 -1.257091934438976 3.695479941826298 -1.3012308566624151 Q 3.6284011567814414 -1.344824853920133 3.556105193088633 -1.3602048290088058 Q 3.4838092293958254 -1.3755848040974785 3.414345180609377 -1.362290221509299 Q 3.3448811318229286 -1.3489956389211193 3.2844743419473597 -1.3083475179691137 Q 3.2240675520717907 -1.267699397017108 3.1799286298483516 -1.1997821271591906" fill="#431a10" fill-rule="nonzero"></path></g><g><path d=" M -1.7579604104223638 0.9596586967512271 L -2.310553543722285 0.5249612973688803 L -2.255727826666933 0.4159744139866747 L -1.6832007957033075 0.5618195332604284 L -2.1411330901987795 0.18817396101567108 L -2.0876555465136413 0.08186708296253606 L -1.409232898660453 0.2664306516316239 L -1.4510262731370736 0.34951081683281343 L -2.042269764307243 0.17633999322528504 L -1.5606777072477775 0.5674845835972246 L -1.6060662107116346 0.6577114296759359 L -2.208544479966917 0.5068739838106627 L -1.7188633826861701 0.8819385422081787 L -1.7579604104223638 0.9596586967512271 M -2.550797329495919 1.288519958666888 L -2.37024296179024 1.2827649345659473 L -2.3031137589810684 1.0305454465595583 L -2.4569193255673842 0.9357992187345814 L -2.4322281245341255 0.8430288323414268 L -1.8232485329035693 1.2338048000997843 L -1.8541125341951425 1.3497677830912276 L -2.5765173305722304 1.385155777826424 L -2.550797329495919 1.288519958666888 M -2.234619778475777 1.0725760857950108 L -2.289917780789846 1.2803430969880134 L -1.9145084306638633 1.2695347743620295 L -2.234619778475777 1.0725760857950108 M -1.955764450339482 2.0507596471566347 L -2.0352726764840257 2.032335696023718 L -2.015279246662486 1.8423850109394806 L -2.619939019077232 1.7787410039682972 L -2.6099946429879846 1.684262914528493 L -2.005334870573239 1.7479069214996765 L -1.9848180525364756 1.5529837053922915 L -1.904263049961485 1.561462594478913 L -1.955764450339482 2.0507596471566347 M -1.9360741114593831 2.4979177077035177 Q -1.949677329675186 2.541244402179017 -1.9831656659063004 2.5871849217284497 L -2.046972621393291 2.5386702597026125 Q -1.999568017159445 2.4729222293333883 -2.0034745869839305 2.403031323542961 Q -2.008274087054013 2.317165353571864 -2.0771011541676376 2.2684305114921295 Q -2.145928221281262 2.2196956694123955 -2.2917006819298678 2.227843657903465 Q -2.4334793765333065 2.235768413833136 -2.4979721552473153 2.291454421893922 Q -2.562464933961324 2.347140429954708 -2.5576654338912417 2.4330063999258043 Q -2.555209875715851 2.4769378264226445 -2.5383915844149305 2.5090492741900277 Q -2.5215732931140096 2.541160721957411 -2.4925504711161883 2.576596238085764 L -2.549833979197257 2.6268714775374673 Q -2.5845684095610806 2.596763017807672 -2.6093245298269907 2.5480687213307767 Q -2.6340806500929004 2.499374424853881 -2.637708179215637 2.4344757266199126 Q -2.6423960630050196 2.3506066396713994 -2.6046161734793203 2.2828926828572684 Q -2.5668362839536214 2.215178726043138 -2.488498739417397 2.174243055582828 Q -2.410161194881173 2.133307385122518 -2.297337304105197 2.1270010652629914 Q -2.184513413329221 2.1206947454034646 -2.1020181623369374 2.1541429675343955 Q -2.0195229113446533 2.1875911896653264 -1.9749592802589522 2.2502017541449533 Q -1.9303956491732508 2.31281231862458 -1.9259309979452675 2.3926876395279257 Q -1.9224708932435801 2.454591013228019 -1.9360741114593831 2.4979177077035177 M -2.477414536644243 3.2786872367462014 L -2.1641171405169 3.2001140760624986 L -2.234662702740658 2.918825392232996 L -2.5479600988680007 2.9973985529166987 L -2.571069852010266 2.9052522599380683 L -1.9027667376705164 2.7376457345167955 L -1.8796569845282511 2.829792027495426 L -2.1590057464003087 2.899851068600399 L -2.088460184176551 3.181139752429902 L -1.8091114223044933 3.1110807113249286 L -1.7860016691622278 3.203227004303559 L -2.454304783501977 3.3708335297248313 L -2.477414536644243 3.2786872367462014 M -1.5483086254713678 3.754009053444679 L -1.6219658426164312 3.775725737409893 L -1.7333794762907038 3.5330819609978557 L -1.937854568772758 3.626969854543591 L -1.841045718538933 3.837806394347309 L -1.910112860888427 3.8695196383894244 L -2.006921711122252 3.6586830985857057 L -2.221393363681207 3.7571610669270106 L -2.1020514189964055 4.017071628926422 L -2.1711185613458994 4.048784872968537 L -2.3301020610833443 3.7025403830322583 L -1.7039538889938535 3.415034789018873 L -1.5483086254713678 3.754009053444679 M -1.3026635567634575 4.150769726819601 Q -1.2913336732314002 4.202275879259383 -1.299487935576713 4.263353764009952 L -1.3766698389556695 4.252820303476897 Q -1.3728704341554234 4.2031457171860795 -1.3818918950891652 4.163965195971821 Q -1.390913356022907 4.124784674757563 -1.4150248071412177 4.08918077153096 Q -1.4453043038944449 4.044468893060341 -1.485629847378304 4.029507257363287 Q -1.5259553908621633 4.014545621666232 -1.565699282836046 4.041460729891323 Q -1.5905392153197226 4.058282672532005 -1.6007843921272955 4.079713639663275 Q -1.6110295689348684 4.101144606794545 -1.6068817594815465 4.137586967814914 Q -1.6027339500282247 4.174029328835283 -1.583700559143811 4.236019086307314 Q -1.5638129717447848 4.301053568449068 -1.5587454688639597 4.34955429436686 Q -1.5536779659831346 4.3980550202846524 -1.5723524921701624 4.442706583210154 Q -1.5910270183571902 4.487358146135655 -1.6423628788234552 4.522123494259731 Q -1.6920427437908083 4.555767379541095 -1.746672217195783 4.5571350913145245 Q -1.8013016906007575 4.558502803087954 -1.8539502259718719 4.52712794494841 Q -1.9065987613429862 4.495753086808866 -1.9492143493660468 4.432825257850219 Q -2.029398942619963 4.314421579678027 -2.0067337022617906 4.189168687976852 L -1.9295517988828341 4.199702148509907 Q -1.9341530026673799 4.25354292231316 -1.9245315121645472 4.298959625413494 Q -1.9149100216617148 4.344376328513828 -1.8851912563298436 4.38826020923499 Q -1.8493044453630558 4.4412520652001675 -1.7996717965582407 4.458364930904598 Q -1.7500391477534258 4.47547779660903 -1.7003592827860727 4.441833911327667 Q -1.6722073593045725 4.42276904300156 -1.660866918419444 4.399388615278123 Q -1.649526477534315 4.376008187554684 -1.6522855578168252 4.339833092862415 Q -1.6550446380993349 4.303657998170146 -1.6737845638904925 4.243884967618383 Q -1.7067261665716464 4.138173800692665 -1.6969421074925786 4.072368997008304 Q -1.6871580484135105 4.006564193323943 -1.6234022217054074 3.9633878738795265 Q -1.5803463387337011 3.9342298399690114 -1.530978316918718 3.93400978980345 Q -1.481610295103735 3.9337897396378882 -1.4348101415091248 3.9618788055447656 Q -1.3880099879145145 3.9899678714516424 -1.3526839083690827 4.042131729667363 Q -1.3139934402955147 4.09926357437982 -1.3026635567634575 4.150769726819601 M -1.383266290750768 5.092211892900905 L -0.9222534332233928 4.580168784174262 L -0.6502537557285435 4.82506095522654 L -0.7092805356531786 4.874181615357779 L -0.9025043502670059 4.700214499309713 L -1.059743859002758 4.8748591009799025 L -0.8925309425100229 5.025407566790729 L -0.942713764446965 5.081145205621641 L -1.1099266809397001 4.930596739810815 L -1.3126652815649464 5.155776800687698 L -1.383266290750768 5.092211892900905 M -0.21960805336668 5.142161245484683 Q -0.1857393583295912 5.211913747206733 -0.1967879831706747 5.299150080744549 Q -0.20783660801175807 5.386386414282364 -0.2678131791781755 5.4833338789790735 Q -0.3267375297978137 5.578580510961805 -0.39986654869907057 5.627410794542178 Q -0.47299556760032735 5.67624107812255 -0.55079447046545 5.677498342209055 Q -0.6285933733305726 5.678755606295558 -0.7025795963885875 5.6329840125106605 Q -0.7765658194466024 5.5872124187257635 -0.810697569620386 5.517885125182207 Q -0.8448293197941696 5.4485578316386505 -0.8337806949530862 5.3613214981008355 Q -0.8227320701120027 5.27408516456302 -0.7632816092189749 5.1779881162232995 Q -0.7048833688727263 5.083591900597556 -0.63122823969808 5.033911200660195 Q -0.5575731105234334 4.984230500722833 -0.4790859443431217 4.98281108359453 Q -0.40059877816280987 4.9813916664662266 -0.3274629714617837 5.026637149977734 Q -0.25347674840376877 5.072408743762632 -0.21960805336668 5.142161245484683 M -0.5233333613550839 5.077142499823534 Q -0.6016296777950123 5.108665298429282 -0.6773895571631185 5.231125253835652 Q -0.7526233262578352 5.352734792885032 -0.744926688547012 5.4362812576094495 Q -0.7372300508361889 5.519827722333868 -0.6615429950641967 5.566651536665544 Q -0.4999638872363481 5.666612488609573 -0.35370523123403186 5.430196741366721 Q -0.20692046495832606 5.19293057776688 -0.3684995727861746 5.092969625822851 Q -0.4450370449151555 5.045619701217785 -0.5233333613550839 5.077142499823534 M 0.13276875342709682 5.704842267409282 L 0.03246763639272976 5.667577190974928 L -0.06922771238139361 5.941296127180864 L -0.15828010601003725 5.908210311655036 L 0.08167912448780862 5.262346109443085 L 0.25134736919080336 5.325383294813346 Q 0.37227114580233 5.370310349579996 0.4175425059659009 5.439402707688113 Q 0.46281386612947195 5.50849506579623 0.42903150711888993 5.59942224665916 Q 0.4039559416677362 5.666914587093501 0.35360014942645124 5.69621124539701 Q 0.3032443571851663 5.725507903700518 0.2249295858247209 5.7209475762165365 L 0.2916688302188991 6.0753807479960615 L 0.18574335148167032 6.036026041107445 L 0.13276875342709682 5.704842267409282 M 0.1478812608320479 5.632581544191649 Q 0.2181857821178192 5.658701924869934 0.26442902771177923 5.643345745757385 Q 0.3106722733057393 5.627989566644836 0.3343547517873845 5.5642468006790695 Q 0.3566441432995211 5.504253609181879 0.3304802336972401 5.4641294290117655 Q 0.30431632409495923 5.424005248841653 0.22463786663775176 5.394402150739596 L 0.14495940918054429 5.36479905263754 L 0.05789147358626057 5.599147456923444 L 0.1478812608320479 5.632581544191649 M 1.3373065537882471 5.550048637500541 L 1.3191196016996969 5.624655840730046 L 1.0533328548424468 5.599231340832505 L 1.0319077144793498 5.823208936498727 L 1.2628535020107432 5.845300636784231 L 1.2556165657103193 5.920955291320377 L 1.024670778178926 5.898863591034873 L 1.0021981865091887 6.1337912024892205 L 1.2868985970004752 6.161024936461868 L 1.2796616607000513 6.236679590998015 L 0.9003929320385822 6.200399686649837 L 0.966001472972688 5.514530515920828 L 1.3373065537882471 5.550048637500541 M 1.9748047164110107 5.517275250510401 L 1.8053246690973654 6.2204093156520095 L 1.703592970137201 6.227802652292422 L 1.4322356552901336 5.556706379259269 L 1.533967354250298 5.549313042618856 L 1.7489877384796149 6.121231948029297 L 1.8790572350367383 5.524233684995495 L 1.9748047164110107 5.517275250510401 M 2.4669438428007213 5.399077680487884 L 2.4743598349768847 5.475510677681786 L 2.215041942822014 5.5390970819546705 L 2.26862599136658 5.757623395568326 L 2.493950901403771 5.702372287735707 L 2.5120504022454915 5.776185620334097 L 2.2867254922083 5.831436728166716 L 2.342929205348378 6.060646550445928 L 2.6207004306528465 5.992535270962613 L 2.6387999314945665 6.0663486035610035 L 2.2687620404421107 6.157084259096468 L 2.1046757762323063 5.487908125408431 L 2.4669438428007213 5.399077680487884 M 2.9893273687073876 5.620275291785705 L 2.891271045406772 5.663100021332606 L 3.0081385316469107 5.930692978377277 L 2.921079179183747 5.968714934517047 L 2.645319939391091 5.337305525599999 L 2.8111909161893287 5.264863693375803 Q 2.92940835269194 5.213233879249167 3.0099612241619313 5.231522807537591 Q 3.0905140956319226 5.249811735826014 3.129336514006215 5.3387039167620856 Q 3.158153154448989 5.4046857417868 3.1422562279769117 5.460732933765893 Q 3.1263593015048343 5.516780125744987 3.066833549467755 5.567874986977992 L 3.360958012681836 5.776603998231888 L 3.257403203962494 5.821830114482353 L 2.9893273687073876 5.620275291785705 M 2.950029940546355 5.557779594814406 Q 3.0187610082804315 5.52776226101985 3.0413777001892437 5.484602844352084 Q 3.0639943920980564 5.441443427684318 3.0367786761243254 5.379127259605422 Q 3.0111638846196374 5.320476748472343 2.9644753496742138 5.3097678407479325 Q 2.9177868147287898 5.299058933023523 2.8398916046301697 5.333078577990686 L 2.76199639453155 5.36709822295785 L 2.862054173846737 5.596201782071438 L 2.950029940546355 5.557779594814406 M 3.5620708606565317 4.8302876572431845 L 3.611257237974182 5.30635561487777 L 3.757654074187636 5.527246914721587 L 3.6776330749989325 5.580281240293254 L 3.5317886796768496 5.3602234925243195 L 3.1119527402200746 5.128605738583809 L 3.199475708082719 5.070599444989798 L 3.5278948006206403 5.262030632774255 L 3.479549205243181 4.884979305488965 L 3.5620708606565317 4.8302876572431845 M 4.1593997484724206 4.264844431962943 Q 4.233569180658974 4.242230380377166 4.318027572430996 4.2667054709650225 Q 4.402485964203017 4.291180561552879 4.48893165349459 4.365498411379854 Q 4.5738607517459595 4.438512439280041 4.61072964319018 4.518343102835308 Q 4.647598534634401 4.598173766390575 4.636746778376324 4.675222383419794 Q 4.625895022118247 4.752271000449014 4.569178768302923 4.818242710697845 Q 4.512462514487599 4.884214420946677 4.438672230061096 4.907154428014151 Q 4.364881945634593 4.9300944350816245 4.280423553862572 4.905619344493768 Q 4.195965162090551 4.881144253905911 4.110277768319079 4.807478315042331 Q 4.026106965587811 4.735116198105539 3.9884797786234887 4.654633623586877 Q 3.9508525916591664 4.574151049068216 3.96165115563889 4.496397328797248 Q 3.972449719618614 4.418643608526281 4.028514062470543 4.353430193797551 Q 4.085230316285866 4.287458483548719 4.1593997484724206 4.264844431962943 M 4.0479576735301315 4.554770567267363 Q 4.066926220727308 4.6370152887832665 4.176120775621926 4.7308904675120775 Q 4.284557034996443 4.8241137352774945 4.368284338494668 4.829497846059801 Q 4.452011641992892 4.834881956842107 4.510031717735004 4.7673936555530725 Q 4.633894800779964 4.623317506733785 4.423088646191743 4.442086258910107 Q 4.21152419608342 4.260203100123036 4.087661113038461 4.4042792489423235 Q 4.028989126332954 4.47252584575146 4.0479576735301315 4.554770567267363 M 4.498907253754007 3.687520982718942 Q 4.533949999294453 3.6586374928849983 4.587082412044978 3.6384150618909783 L 4.614076599432264 3.7138889901529955 Q 4.53847362306761 3.7431155185955873 4.503607501419502 3.8038143947072527 Q 4.460771980537541 3.878387299644442 4.491852758206745 3.956785228567836 Q 4.522933535875948 4.03518315749123 4.649534048908851 4.107903925500141 Q 4.772666054735373 4.178632343700588 4.857097661353074 4.167162653035455 Q 4.9415292679707745 4.155692962370322 4.984364788852735 4.081120057433132 Q 5.006280636745832 4.042966478162943 5.009710620641726 4.006879981928563 Q 5.01314060453762 3.970793485694183 5.008157416622835 3.925261432828033 L 5.083595134967992 3.9143917202800065 Q 5.096271520952928 3.9585766638508764 5.090443937982231 4.012890927877185 Q 5.084616355011534 4.067205191903495 5.052240670624006 4.1235684340071845 Q 5.010401324646277 4.196407085341184 4.941790834266488 4.232533261582864 Q 4.873180343886699 4.268659437824544 4.785196444356056 4.260213526187446 Q 4.697212544825413 4.251767614550348 4.599227216245152 4.195483732461258 Q 4.501241887664892 4.13919985037217 4.4503655033168785 4.066152992016227 Q 4.399489118968864 3.9931061336602847 4.396312604490989 3.9163213060198463 Q 4.393136090013114 3.8395364783794075 4.43298308618238 3.7701663342517895 Q 4.463864508213561 3.7164044725528855 4.498907253754007 3.687520982718942 M 4.712229915797389 3.1624320286958354 Q 4.74190684679979 3.1280586412241487 4.790873844633945 3.099175547153225 L 4.830195135718841 3.1690242126194805 Q 4.760595280594433 3.210567685833229 4.736451420362234 3.276272130226953 Q 4.70678896350553 3.3569947333392425 4.750630973045462 3.42903727771061 Q 4.794472982585394 3.501079822081978 4.931513680892305 3.5514370162805675 Q 5.064799839519574 3.600414561323031 5.146093135643156 3.574887124997315 Q 5.227386431766739 3.549359688671599 5.2570488886234426 3.4686370855593096 Q 5.2722250293408255 3.4273371490832543 5.269527611080208 3.3911885123907415 Q 5.26683019281959 3.3550398756982287 5.254248804676173 3.3109977518576974 L 5.326777777455272 3.2875766479637973 Q 5.346715536563307 3.3289950709389657 5.350119890349763 3.3835148872931744 Q 5.353524244136219 3.438034703647383 5.331104945349176 3.4990459734415555 Q 5.302132313070535 3.577891306714024 5.240587208962697 3.625058033973347 Q 5.179042104854859 3.67222476123267 5.090892695252428 3.6787194965423673 Q 5.0027432856499985 3.685214231852064 4.89667753970013 3.646239143191512 Q 4.790611793750261 3.60726405453096 4.7281583496806725 3.5438304883073366 Q 4.665704905611085 3.4803969220837128 4.649640172681804 3.405244248439252 Q 4.633575439752523 3.330091574794791 4.661168422875038 3.255000781201963 Q 4.682552984794987 3.196805416167522 4.712229915797389 3.1624320286958354 M 5.516525506040025 2.6896001610084945 L 5.337051111863648 2.7101413838304818 L 5.290830150147575 2.9670161056270055 L 5.45188699636046 3.0488310937890732 L 5.434886182855697 3.1433137500820476 L 4.795913574508752 2.803790546482792 L 4.817164591389705 2.6856872261165745 L 5.534234686774152 2.59118072736998 L 5.516525506040025 2.6896001610084945 M 5.219120297814768 2.930743566724869 L 5.257195036393142 2.719141784402062 L 4.883936251908972 2.760697527752414 L 5.219120297814768 2.930743566724869 M 4.868387829850891 2.0479137985388105 Q 4.888187822053804 1.9990342495559834 4.92946902103286 1.953286434189 L 4.987149183523198 2.0056409837056193 Q 4.955910705036941 2.044450228246884 4.941181111211564 2.0818606421144072 Q 4.926451517386186 2.1192710559819306 4.926187937431331 2.1622702481325677 Q 4.925856930046167 2.2162692336240655 4.950641918542586 2.251421820232057 Q 4.975426907039006 2.2865744068400486 5.02342600525367 2.286868635626862 Q 5.0534254416378355 2.2870525286186205 5.073998613697052 2.275178414275989 Q 5.094571785756268 2.263304299933358 5.1117706837817005 2.230909116545842 Q 5.128969581807132 2.198513933158326 5.1483492703667375 2.1366315635258313 Q 5.168747329438324 2.071755380021312 5.192010477287705 2.02889717249769 Q 5.215273625137086 1.9860389649740677 5.255935303065096 1.9597877183735957 Q 5.2965969809931055 1.9335364717731236 5.358595816187047 1.9339165172894242 Q 5.418594688955378 1.9342843032729413 5.464412996635868 1.9640657183047332 Q 5.51023130431636 1.9938471333365255 5.53589061381455 2.049505464573422 Q 5.56154992331274 2.1051637958103186 5.561084061066952 2.1811623679835375 Q 5.560207504472904 2.3241596814147254 5.470651367791546 2.4146124225711434 L 5.412971205301208 2.362257873054524 Q 5.447228016725057 2.3204670741740188 5.464991267904007 2.277575152935241 Q 5.482754519082957 2.234683231696463 5.48307939670173 2.181684227417771 Q 5.4834717017508146 2.117685429798218 5.452229743735903 2.0754931312190403 Q 5.420987785720992 2.0333008326398625 5.360988912952661 2.0329330466563458 Q 5.326989551717273 2.0327246345990195 5.304410287466054 2.0455864706216724 Q 5.281831023214835 2.0584483066443253 5.263638273742989 2.0898373790526437 Q 5.245445524271144 2.121226451460962 5.227078076457127 2.1811149884342376 Q 5.194428922409805 2.2869168444670795 5.149129409280351 2.335640084406912 Q 5.103829896150898 2.384363324346744 5.026831342764874 2.3838913323345645 Q 4.9748323196989865 2.383572584482183 4.9340016585497395 2.3558217807079616 Q 4.893170997400492 2.3280709769337404 4.870474852942367 2.2784309222728525 Q 4.847778708484242 2.228790867611965 4.848164883766934 2.165792051205218 Q 4.848587837647979 2.0967933475216376 4.868387829850891 2.0479137985388105 M 4.8278681347538095 1.671782591778498 L 5.511510926936738 1.5860298501527696 L 5.5233345995846985 1.6802911930517221 L 4.83969180740177 1.7660439346774506 L 4.8278681347538095 1.671782591778498 M 4.7167732313693405 1.0558068915781913 Q 4.738751111961441 0.9814464668572458 4.805698530470054 0.9244351245205441 Q 4.872645948978667 0.8674237821838424 4.982288634130023 0.8362070944543484 Q 5.0900077634015295 0.805538067913091 5.176944815280784 0.8187365151908538 Q 5.263881867160038 0.8319349624686164 5.322212444551606 0.883430532580678 Q 5.380543021943175 0.9349261026927398 5.4043662836314725 1.0186007834661426 Q 5.42818954531977 1.1022754642395454 5.406692553697633 1.1764989736634317 Q 5.385195562075495 1.250722483087318 5.318248143566882 1.3077338254240196 Q 5.251300725058268 1.3647451677607214 5.142619817846837 1.3956880248960972 Q 5.035862466515255 1.4260832208432361 4.947963636696076 1.4131586041595918 Q 4.860064806876898 1.4002339874759473 4.801116425218308 1.3483944436909827 Q 4.742168043559719 1.2965548999060181 4.718618612465539 1.2138419970725396 Q 4.694795350777241 1.1301673162991368 4.7167732313693405 1.0558068915781913 M 4.8973744748710395 1.3085116419206415 Q 4.976466904491802 1.3379800585168011 5.114962927840882 1.2985484529637559 Q 5.252497173250038 1.2593906780048292 5.303107850221981 1.192474242232728 Q 5.353718527193922 1.1255578064606264 5.3293476043173875 1.0399595698073754 Q 5.2773197914348975 0.857221761221783 5.009945524135977 0.9333466663866894 Q 4.741609478897134 1.0097454021457144 4.793637291779624 1.1924832107313068 Q 4.818282045250277 1.2790432253244821 4.8973744748710395 1.3085116419206415 M 4.960085063339061 0.013332931364882228 L 5.019536853427132 0.12555808298128202 L 4.633669038695369 0.6468363479743022 Q 4.691833012876496 0.6092337934406384 4.7418888404690245 0.578755700914579 Q 4.791944668061554 0.5482776083885194 4.865288664787232 0.5094232888821422 L 5.144526049911502 0.3614960001590674 L 5.186189115406292 0.44014197255166254 L 4.5773455763220445 0.7626796368877337 L 4.51929815922818 0.6531054731047922 L 4.90464526357689 0.12870809594691146 Q 4.883074408681124 0.14353031639682523 4.827976960613206 0.17837671099372776 Q 4.772879512545288 0.2132231055906303 4.7251617315430385 0.23850181948634563 L 4.3929045897496035 0.4145165680935484 L 4.351241524254813 0.33587059570095334 L 4.960085063339061 0.013332931364882228" fill="#3e7742" fill-rule="nonzero"></path></g><g clip-path="url(#SvgjsClipPath27378)"><g clip-path="url(#SvgjsClipPath27373d3efdbc6-5d0b-4b64-b5d6-dfb14753ac0d)"><path d=" M 0.6948311172498185 0.9335385664876762 L 0.7254085997696867 0.5845589213171604 L 0.8524681120295358 0.5627108432874312 L 0.8738903654499899 0.07356939018706389 L 2.09240386276022 0.10245995213941934 L 2.0611548875872643 0.5408791431272896 L 2.2625535499047897 0.6194929171473045 L 2.2625535499047897 3.7291098821177546 L 2.0793015670902175 3.7291098821177546 L 2.1306625661166274 4.1440104523779695 L 0.8826361478097164 4.182563957386952 L 0.8524681120295358 3.7029052907777493 L 0.6948311172498185 3.698532399597886 L 0.6948311172498185 0.9335385664876762 Z" fill="#b88059" transform="matrix(1,0,0,1,0,0)" fill-rule="nonzero"></path></g><g clip-path="url(#SvgjsClipPath27373d3efdbc6-5d0b-4b64-b5d6-dfb14753ac0d)"><path d=" M 2.0611548875872634 4.182563957386952 L 0.9016017207920443 4.182563957386952 L 0.9016017207920443 3.7894950872868782 L 2.0611548875872634 3.7894950872868782 Z" fill="#3e7742" transform="matrix(1,0,0,1,0,0)" fill-rule="nonzero"></path></g><g clip-path="url(#SvgjsClipPath27373d3efdbc6-5d0b-4b64-b5d6-dfb14753ac0d)"><path d=" M 0.8524681120295358 0.10245995213941934 L 2.012021278824755 0.10245995213941934 L 2.012021278824755 0.49552882223949357 L 0.8524681120295358 0.49552882223949357 Z" fill="#3e7742" transform="matrix(1,0,0,1,0,0)" fill-rule="nonzero"></path></g><g clip-path="url(#SvgjsClipPath27373d3efdbc6-5d0b-4b64-b5d6-dfb14753ac0d)"><path d=" M 0.94072845123659 4.096678409270086 L 0.94072845123659 3.6692160130362548 C 0.94072845123659 3.6375575911236115 0.9150643295929727 3.6118934694799942 0.8834059076803291 3.6118934694799942 L 0.7829604335001726 3.6118934694799942 L 0.7829604335001726 2.6062922768073045 L 2.130678943986215 2.6062922768073045 L 2.130678943986215 3.6118934694799942 L 2.0302334698060585 3.6118934694799942 C 1.9985750478934152 3.6118934694799942 1.9729109262497977 3.6375575911236115 1.9729109262497977 3.6692160130362548 L 1.9729109262497977 4.096678409270086 L 0.9407448291061776 4.096678409270086 M 0.94072845123659 4.285023909526371 L 2.103917505080235 4.285023909526371 C 2.1355759269928782 4.285023909526371 2.1612400486364955 4.259359787882754 2.1612400486364955 4.227701365970111 L 2.1612400486364955 3.80023896973628 L 2.261685522816652 3.80023896973628 C 2.293343944729296 3.80023896973628 2.319008066372913 3.774574848092662 2.319008066372913 3.7429164261800194 L 2.319008066372913 2.4179467765510188 L 0.594614933243887 2.4179467765510188 L 0.594614933243887 3.7429164261800194 C 0.594614933243887 3.774574848092662 0.6202790548875045 3.80023896973628 0.6519374768001479 3.80023896973628 L 0.7523829509803044 3.80023896973628 L 0.7523829509803044 4.227701365970111 C 0.7523829509803044 4.259359787882754 0.7780470726239218 4.285023909526371 0.8097054945365653 4.285023909526371 L 0.94072845123659 4.285023909526371 Z" fill="#431a10" transform="matrix(1,0,0,1,0,0)" fill-rule="nonzero"></path></g><g clip-path="url(#SvgjsClipPath27373d3efdbc6-5d0b-4b64-b5d6-dfb14753ac0d)"><path d=" M 1.9728945483802098 0.18834550025628555 L 1.9728945483802098 0.6158078964901162 C 1.9728945483802098 0.6474663184027598 1.9985586700238274 0.673130440046377 2.030217091936471 0.673130440046377 L 2.130662566116627 0.673130440046377 L 2.130662566116627 1.6787316327190671 L 0.7829604335001726 1.6787316327190671 L 0.7829604335001726 0.673130440046377 L 0.8834059076803291 0.673130440046377 C 0.9150643295929727 0.673130440046377 0.94072845123659 0.6474663184027598 0.94072845123659 0.6158078964901162 L 0.94072845123659 0.18834550025628555 L 1.9728945483802103 0.18834550025628555 M 1.9728945483802098 0 L 0.8097054945365653 0 C 0.7780470726239218 0 0.7523829509803044 0.025664121643617345 0.7523829509803044 0.057322543556260826 L 0.7523829509803044 0.4847849397900915 L 0.6519374768001479 0.4847849397900915 C 0.6202790548875045 0.4847849397900915 0.594614933243887 0.5104490614337089 0.594614933243887 0.5421074833463524 L 0.594614933243887 1.8670771329753524 L 2.3190244442425003 1.8670771329753524 L 2.3190244442425003 0.5421074833463524 C 2.3190244442425003 0.5104490614337089 2.293360322598883 0.4847849397900915 2.2617019006862398 0.4847849397900915 L 2.161256426506083 0.4847849397900915 L 2.161256426506083 0.057322543556260826 C 2.161256426506083 0.02566412164361735 2.135592304862466 0 2.1039338829498226 0 L 1.9729109262497977 0 Z" fill="#431a10" transform="matrix(1,0,0,1,0,0)" fill-rule="nonzero"></path></g><g clip-path="url(#SvgjsClipPath27373d3efdbc6-5d0b-4b64-b5d6-dfb14753ac0d)"><path d=" M 2.8177633289211443 2.142536521567567 C 2.8177633289211443 2.8941695303187336 2.2084445085595665 3.5034883506803114 1.4568114998084 3.5034883506803114 C 0.7051784910572335 3.5034883506803114 0.09585967069565529 2.8941695303187336 0.09585967069565529 2.142536521567567 C 0.09585967069565529 1.3909035128164007 0.7051784910572335 0.7815846924548226 1.4568114998084 0.7815846924548226 C 2.2084445085595665 0.7815846924548226 2.8177633289211443 1.3909035128164007 2.8177633289211443 2.142536521567567 Z" fill="#b88059" transform="matrix(1,0,0,1,0,0)" fill-rule="nonzero"></path></g><g clip-path="url(#SvgjsClipPath27373d3efdbc6-5d0b-4b64-b5d6-dfb14753ac0d)"><path d=" M 1.4568114998084 0.8734809187103024 C 2.1573584935442573 0.8734809187103024 2.7252774993605144 1.4413999245265599 2.7252774993605144 2.1419469182624167 C 2.7252774993605144 2.8424939119982735 2.1573584935442573 3.4104129178145315 1.4568114998084 3.4104129178145315 C 0.7562645060725426 3.4104129178145315 0.1883455002562853 2.8425102898678616 0.1883455002562853 2.1419469182624167 C 0.1883455002562853 1.441383546656972 0.7562645060725426 0.8734809187103023 1.4568114998084 0.8734809187103023 M 1.4568114998084 0.6851354184540168 C 1.3580857019349313 0.6851354184540168 1.2593762819310503 0.6950931631632187 1.1634183440178696 0.7147302287986349 C 1.069802441455702 0.7338923362160136 0.9777096807651721 0.7624717186462063 0.8896950096019304 0.7996986162186009 C 0.8033345032670266 0.8362212653987329 0.7200530364145734 0.8814241854602414 0.6421598886564087 0.9340462804448888 C 0.5650528786384441 0.9861279057331486 0.49256442784415533 1.0459398854667097 0.4266926363632179 1.1118280548172348 C 0.3608208448822805 1.177699846298172 0.3010088651487191 1.2502046749620483 0.24891086199087176 1.3272953071104252 C 0.19628876700622433 1.40518845486859 0.1510858469447158 1.488469921721043 0.1145631977645839 1.574830428055947 C 0.07733630019218936 1.6628287213496014 0.048756917761996456 1.7549214820401309 0.02959481034461783 1.8485537624718862 C 0.009957744709201622 1.9445117003850667 -2.5878170714015876e-16 2.0432374982585357 -2.5878170714015876e-16 2.1419469182624167 C -2.5878170714015876e-16 2.240656338266298 0.009957744709201622 2.339382136139766 0.02959481034461783 2.4353400740529474 C 0.048756917761996456 2.5289559766151144 0.07733630019218936 2.6210487373056446 0.1145631977645839 2.7090634084688863 C 0.15108584694471577 2.7954239148037905 0.19628876700622433 2.878705381656243 0.24891086199087176 2.9565985294144075 C 0.30099248727913164 3.033705539432372 0.3608044670126929 3.106193990226661 0.4266926363632179 3.1720657817075986 C 0.49256442784415533 3.237937573188536 0.5650692565080315 3.297749552922097 0.6421598886564087 3.3498475560799443 C 0.7200530364145734 3.4024696510645915 0.8033345032670266 3.4476725711261005 0.8896950096019304 3.484195220306232 C 0.9776933028955845 3.5214221178786267 1.0697860635861145 3.5500015003088192 1.1634183440178696 3.5691636077261983 C 1.2593762819310503 3.588800673361614 1.358102079804519 3.598758418070817 1.4568114998084 3.598758418070817 C 1.5555209198122812 3.598758418070817 1.6542467176857498 3.5888006733616153 1.7502046555989301 3.5691636077261983 C 1.843820558161098 3.55000150030882 1.935913318851628 3.5214221178786267 2.0239279900148697 3.484195220306232 C 2.1102884963497734 3.4476725711261005 2.1935699632022265 3.4024696510645915 2.2714631109603913 3.3498475560799443 C 2.348570120978355 3.297765930791685 2.4210585717726443 3.2379539510581234 2.4869303632535815 3.1720657817075986 C 2.5528021547345188 3.106193990226661 2.61261413446808 3.033689161562785 2.6647121376259277 2.9565985294144075 C 2.7173342326105754 2.878705381656243 2.762537152672084 2.7954239148037896 2.799059801852215 2.7090634084688863 C 2.8362866994246096 2.6210651151752318 2.864866081854803 2.5289723544847025 2.8840281892721817 2.4353400740529474 C 2.903665254907598 2.339382136139766 2.9136229996167993 2.240656338266298 2.9136229996167993 2.1419469182624167 C 2.9136229996167993 2.0432374982585357 2.903665254907598 1.9445117003850672 2.8840281892721817 1.8485537624718866 C 2.864866081854803 1.754937859909719 2.8362866994246096 1.662845099219189 2.799059801852215 1.5748304280559473 C 2.762537152672084 1.4884699217210438 2.717334232610575 1.4051884548685902 2.6647121376259277 1.3272953071104259 C 2.612630512337668 1.2501882970924612 2.552818532604107 1.1776998462981725 2.4869303632535815 1.111828054817235 C 2.4210585717726443 1.0459562633362975 2.3485537431087677 0.9861442836027364 2.2714631109603913 0.9340462804448891 C 2.1935699632022265 0.8814241854602417 2.110288496349773 0.8362212653987331 2.0239279900148697 0.7996986162186013 C 1.9359296967212154 0.7624717186462068 1.8438369360306857 0.7338923362160139 1.7502046555989301 0.7147302287986353 C 1.6542467176857496 0.695093163163219 1.555520919812281 0.6851354184540173 1.4568114998083996 0.6851354184540173 L 1.4568114998083996 0.6851354184540173 Z" fill="#431a10" transform="matrix(1,0,0,1,0,0)" fill-rule="nonzero"></path></g><g clip-path="url(#SvgjsClipPath27373d3efdbc6-5d0b-4b64-b5d6-dfb14753ac0d)"><path d=" M 0.8756910051499639 3.149074682126299 L 0.8757051888010865 3.149082871061093 C 0.8493300807535258 3.133855195329928 0.8402933031905334 3.100129482328142 0.8555209789216981 3.073754374280581 L 0.9786252356761649 2.8605315469538404 C 0.9938529114073299 2.834156438906279 1.0275786244091156 2.8251196613432863 1.0539537324566763 2.8403473370744514 L 1.0539395488055538 2.840339148139658 C 1.0803146568531146 2.8555668238708223 1.0893514344161073 2.8892925368726083 1.0741237586849424 2.9156676449201693 L 0.9510195019304755 3.1288904722469097 C 0.9357918261993107 3.155265580294471 0.9020661131975246 3.164302357857464 0.8756910051499639 3.149074682126299 Z" fill="#431a10" transform="matrix(1,0,0,1,0,0)" fill-rule="nonzero"></path></g><g clip-path="url(#SvgjsClipPath27373d3efdbc6-5d0b-4b64-b5d6-dfb14753ac0d)"><path d=" M 2.037943005059172 1.1360174319141818 L 2.0379288214080487 1.1360092429793882 C 2.0643039294556096 1.1512369187105527 2.0733407070186023 1.1849626317123387 2.0581130312874376 1.2113377397598992 L 1.9350087745329707 1.4245605670866406 C 1.919781098801806 1.450935675134201 1.88605538580002 1.4599724526971933 1.859680277752459 1.4447447769660289 L 1.859694461403582 1.4447529659008225 C 1.833319353356021 1.429525290169658 1.824282575793029 1.3957995771678722 1.8395102515241937 1.369424469120311 L 1.9626145082786604 1.1562016417935705 C 1.9778421840098253 1.1298265337460094 2.011567897011611 1.1207897561830173 2.037943005059172 1.1360174319141818 Z" fill="#431a10" transform="matrix(1,0,0,1,0,0)" fill-rule="nonzero"></path></g><g clip-path="url(#SvgjsClipPath27373d3efdbc6-5d0b-4b64-b5d6-dfb14753ac0d)"><path d=" M 2.4633458059112496 2.7236723612972504 L 2.4633539948460434 2.7236581776461275 C 2.4481263191148788 2.7500332856936884 2.4144006061130927 2.7590700632566802 2.3880254980655318 2.7438423875255156 L 2.174802670738791 2.620738130771049 C 2.14842756269123 2.6055104550398838 2.1393907851282377 2.571784742038098 2.1546184608594023 2.545409633990537 L 2.1546102719246085 2.5454238176416606 C 2.169837947655773 2.5190487095940997 2.2035636606575597 2.510011932031107 2.2299387687051206 2.525239607762272 L 2.443161596031861 2.6483438645167388 C 2.469536704079422 2.663571540247903 2.4785734816424143 2.6972972532496895 2.4633458059112496 2.7236723612972504 Z" fill="#431a10" transform="matrix(1,0,0,1,0,0)" fill-rule="nonzero"></path></g><g clip-path="url(#SvgjsClipPath27373d3efdbc6-5d0b-4b64-b5d6-dfb14753ac0d)"><path d=" M 0.4502885556991319 1.5614203613880422 L 0.450280366764338 1.5614345450391651 C 0.4655080424955028 1.5350594369916044 0.4992337554972888 1.526022659428612 0.5256088635448496 1.5412503351597764 L 0.7388316908715906 1.6643545919142437 C 0.7652067989191517 1.6795822676454084 0.7742435764821438 1.7133079806471943 0.759015900750979 1.739683088694755 L 0.759024089685773 1.7396689050436323 C 0.7437964139546082 1.766044013091193 0.7100707009528224 1.7750807906541854 0.6836955929052614 1.7598531149230208 L 0.47047276557852036 1.6367488581685536 C 0.44409765753095964 1.621521182437389 0.43506087996796716 1.5877954694356031 0.4502885556991319 1.5614203613880422 Z" fill="#431a10" transform="matrix(1,0,0,1,0,0)" fill-rule="nonzero"></path></g><g clip-path="url(#SvgjsClipPath27373d3efdbc6-5d0b-4b64-b5d6-dfb14753ac0d)"><path d=" M 0.4502690047707577 2.7236594987956115 L 0.4502771937055513 2.7236736824467345 C 0.43504951797438685 2.6972985743991735 0.44408629553737905 2.663572861397388 0.47046140358494 2.648345185666223 L 0.6836842309116808 2.525240928911756 C 0.7100593389592418 2.5100132531805914 0.7437850519610278 2.5190500307435837 0.7590127276921923 2.5454251387911446 L 0.7590045387573987 2.5454109551400217 C 0.7742322144885632 2.571786063187582 0.7651954369255708 2.6055117761893687 0.7388203288780097 2.620739451920533 L 0.5255975015512689 2.7438437086750005 C 0.499222393503708 2.7590713844061647 0.46549668050192217 2.7500346068431725 0.4502690047707577 2.7236594987956115 Z" fill="#431a10" transform="matrix(1,0,0,1,0,0)" fill-rule="nonzero"></path></g><g clip-path="url(#SvgjsClipPath27373d3efdbc6-5d0b-4b64-b5d6-dfb14753ac0d)"><path d=" M 2.4633426328524624 1.56143322388968 L 2.463334443917668 1.561419040238557 C 2.478562119648833 1.5877941482861182 2.469525342085841 1.6215198612879038 2.44315023403828 1.6367475370190685 L 2.2299274067115387 1.7598517937735356 C 2.2035522986639777 1.7750794695047003 2.169826585662192 1.766042691941708 2.1545989099310274 1.739667583894147 L 2.1546070988658212 1.7396817675452698 C 2.1393794231346566 1.7133066594977089 2.148416200697649 1.679580946495923 2.1747913087452098 1.6643532707647586 L 2.388014136071951 1.5412490140102912 C 2.4143892441195116 1.5260213382791268 2.4481149571212972 1.535058115842119 2.4633426328524624 1.56143322388968 Z" fill="#431a10" transform="matrix(1,0,0,1,0,0)" fill-rule="nonzero"></path></g><g clip-path="url(#SvgjsClipPath27373d3efdbc6-5d0b-4b64-b5d6-dfb14753ac0d)"><path d=" M 2.0379191319651984 3.149082871061092 L 2.0379333156163213 3.1490746821262987 C 2.0115582075687604 3.164302357857463 1.9778324945669739 3.155265580294471 1.9626048188358094 3.1288904722469097 L 1.8395005620813425 2.9156676449201693 C 1.8242728863501776 2.8892925368726083 1.8333096639131703 2.855566823870822 1.8596847719607312 2.840339148139657 L 1.8596705883096079 2.840347337074451 C 1.8860456963571688 2.8251196613432863 1.9197714093589546 2.8341564389062786 1.9349990850901195 2.8605315469538395 L 2.0581033418445864 3.0737543742805804 C 2.073331017575751 3.1001294823281413 2.0642942400127593 3.133855195329928 2.0379191319651984 3.149082871061092 Z" fill="#431a10" transform="matrix(1,0,0,1,0,0)" fill-rule="nonzero"></path></g><g clip-path="url(#SvgjsClipPath27373d3efdbc6-5d0b-4b64-b5d6-dfb14753ac0d)"><path d=" M 0.8756928570592664 1.1360092429793884 L 0.8756786734081438 1.136017431914182 C 0.9020537814557045 1.1207897561830176 0.9357794944574903 1.1298265337460098 0.951007170188655 1.1562016417935705 L 1.074111426943122 1.3694244691203117 C 1.0893391026742867 1.3957995771678724 1.0803023251112944 1.4295252901696582 1.0539272170637337 1.444752965900823 L 1.0539414007148562 1.444744776966029 C 1.0275662926672955 1.4599724526971938 0.9938405796655095 1.4509356751342015 0.9786129039343451 1.4245605670866408 L 0.8555086471798777 1.2113377397599 C 0.8402809714487133 1.1849626317123392 0.8493177490117056 1.1512369187105531 0.8756928570592664 1.1360092429793884 Z" fill="#431a10" transform="matrix(1,0,0,1,0,0)" fill-rule="nonzero"></path></g><g clip-path="url(#SvgjsClipPath27373d3efdbc6-5d0b-4b64-b5d6-dfb14753ac0d)"><path d=" M 0.29457236240083007 2.1425365215675676 L 0.29457236240083007 2.1425528994371548 C 0.29457236240083007 2.1120975479748254 0.31926129783962365 2.087408612536032 0.3497166493019532 2.087408612536032 L 0.595925162810887 2.087408612536032 C 0.6263805142732167 2.087408612536032 0.6510694497120101 2.1120975479748254 0.6510694497120101 2.1425528994371548 L 0.6510694497120101 2.1425365215675676 C 0.6510694497120101 2.1729918730298965 0.6263805142732167 2.1976808084686903 0.595925162810887 2.1976808084686903 L 0.3497166493019532 2.1976808084686903 C 0.31926129783962365 2.1976808084686903 0.29457236240083007 2.1729918730298965 0.29457236240083007 2.1425365215675676 Z" fill="#431a10" transform="matrix(1,0,0,1,0,0)" fill-rule="nonzero"></path></g><g clip-path="url(#SvgjsClipPath27373d3efdbc6-5d0b-4b64-b5d6-dfb14753ac0d)"><path d=" M 2.61905063721597 2.1425528994371548 L 2.61905063721597 2.142536521567567 C 2.61905063721597 2.1729918730298965 2.5943617017771765 2.19768080846869 2.5639063503148467 2.19768080846869 L 2.317697836805913 2.19768080846869 C 2.287242485343583 2.19768080846869 2.2625535499047897 2.1729918730298965 2.2625535499047897 2.142536521567567 L 2.2625535499047897 2.1425528994371548 C 2.2625535499047897 2.112097547974825 2.287242485343583 2.087408612536032 2.317697836805913 2.087408612536032 L 2.5639063503148467 2.087408612536032 C 2.5943617017771765 2.087408612536032 2.61905063721597 2.112097547974825 2.61905063721597 2.1425528994371548 Z" fill="#431a10" transform="matrix(1,0,0,1,0,0)" fill-rule="nonzero"></path></g><g clip-path="url(#SvgjsClipPath27373d3efdbc6-5d0b-4b64-b5d6-dfb14753ac0d)"><path d=" M 1.4568114998084 3.3047756589751365 L 1.4568278776779873 3.3047756589751365 C 1.426372526215658 3.3047756589751365 1.4016835907768643 3.280086723536343 1.4016835907768643 3.2496313720740133 L 1.4016835907768646 3.0034228585650795 C 1.4016835907768646 2.9729675071027497 1.4263725262156584 2.9482785716639563 1.4568278776779875 2.9482785716639563 L 1.4568114998084003 2.9482785716639563 C 1.4872668512707294 2.9482785716639563 1.511955786709523 2.9729675071027497 1.511955786709523 3.0034228585650795 L 1.5119557867095228 3.2496313720740133 C 1.5119557867095228 3.280086723536343 1.4872668512707292 3.3047756589751365 1.4568114998084 3.3047756589751365 Z" fill="#431a10" transform="matrix(1,0,0,1,0,0)" fill-rule="nonzero"></path></g><g clip-path="url(#SvgjsClipPath27373d3efdbc6-5d0b-4b64-b5d6-dfb14753ac0d)"><path d=" M 1.4568114998084 0.980313762029585 L 1.4567951219388129 0.980313762029585 C 1.487250473401142 0.980313762029585 1.5119394088399356 1.0050026974683786 1.5119394088399356 1.0354580489307077 L 1.5119394088399356 1.281666562439642 C 1.5119394088399356 1.312121913901971 1.487250473401142 1.3368108493407649 1.4567951219388129 1.3368108493407649 L 1.4568114998084 1.3368108493407649 C 1.4263561483460707 1.3368108493407649 1.4016672129072771 1.312121913901971 1.4016672129072771 1.281666562439642 L 1.4016672129072771 1.0354580489307077 C 1.4016672129072771 1.0050026974683786 1.4263561483460707 0.980313762029585 1.4568114998084 0.980313762029585 Z" fill="#431a10" transform="matrix(1,0,0,1,0,0)" fill-rule="nonzero"></path></g><g clip-path="url(#SvgjsClipPath27373d3efdbc6-5d0b-4b64-b5d6-dfb14753ac0d)"><path d=" M 0.9851229472071844 1.704875089013439 L 0.9851342727178299 1.7048632582306735 C 1.02000538137156 1.6684364229050137 1.0778037731584087 1.6671752575097893 1.1142306084840683 1.7020463661635192 L 1.5162524376326352 2.0868985434136156 C 1.552679272958295 2.1217696520673455 1.5539404383535198 2.1795680438541942 1.5190693296997897 2.2159948791798545 L 1.5190580041891442 2.2160067099626195 C 1.484186895535414 2.2524335452882793 1.4263885037485655 2.2536947106835035 1.3899616684229057 2.218823602029774 L 0.9879398392743385 1.8339714247796772 C 0.9515130039486791 1.7991003161259473 0.9502518385534544 1.7413019243390988 0.9851229472071844 1.704875089013439 Z" fill="#431a10" transform="matrix(1,0,0,1,0,0)" fill-rule="nonzero"></path></g><g clip-path="url(#SvgjsClipPath27373d3efdbc6-5d0b-4b64-b5d6-dfb14753ac0d)"><path d=" M 2.237458858936667 1.456184675961979 L 2.237469734770992 1.4561969214035784 C 2.270956295537219 1.4939004862036438 2.2675377390163614 1.5516114739149443 2.229834174216296 1.5850980346811714 L 1.5139656583207237 2.2208993093162004 C 1.476262093520658 2.2543858700824275 1.4185511058093578 2.25096731356157 1.3850645450431305 2.213263748761505 L 1.3850536692088056 2.2132515033199054 C 1.3515671084425782 2.1755479385198395 1.354985664963436 2.117836950808539 1.3926892297635016 2.084350390042312 L 2.108557745659074 1.4485491154072831 C 2.1462613104591393 1.4150625546410556 2.2039722981704397 1.4184811111619136 2.237458858936667 1.456184675961979 Z" fill="#431a10" transform="matrix(1,0,0,1,0,0)" fill-rule="nonzero"></path></g></g></g><defs><clipPath id="SvgjsClipPath27378"><path d=" M 0 0 h 2.9136229996167993 v 4.285023909526371 h -2.9136229996167993 Z"></path></clipPath><clipPath id="SvgjsClipPath27373d3efdbc6-5d0b-4b64-b5d6-dfb14753ac0d"><path d=" M -2.5878170714015876e-16 0 L 2.9136229996167993 0 L 2.9136229996167993 4.285023909526371 L -5.175634142803175e-16 4.285023909526371 Z"></path></clipPath></defs></svg>